<svg xmlns="http://www.w3.org/2000/svg" width="200" height="200">
  <defs>
    <pattern id="wood" patternUnits="userSpaceOnUse" width="200" height="200">
      <rect width="200" height="200" fill="#8B5A2B"/>
      <g fill="none" stroke="#6B4423" stroke-width="0.5" opacity="0.6">
        <path d="M0,10 Q50,8 100,12 T200,10"/>
        <path d="M0,25 Q60,22 120,28 T200,24"/>
        <path d="M0,42 Q40,38 90,44 T200,40"/>
        <path d="M0,58 Q70,54 130,60 T200,56"/>
        <path d="M0,75 Q45,72 95,78 T200,74"/>
        <path d="M0,92 Q55,88 115,94 T200,90"/>
        <path d="M0,108 Q65,104 125,110 T200,106"/>
        <path d="M0,125 Q35,122 85,128 T200,124"/>
        <path d="M0,142 Q75,138 135,144 T200,140"/>
        <path d="M0,158 Q50,154 100,160 T200,156"/>
        <path d="M0,175 Q60,172 120,178 T200,174"/>
        <path d="M0,192 Q40,188 90,194 T200,190"/>
      </g>
      <g fill="none" stroke="#5D3A1A" stroke-width="0.3" opacity="0.4">
        <path d="M0,5 Q55,3 110,7 T200,5"/>
        <path d="M0,18 Q45,15 95,20 T200,17"/>
        <path d="M0,35 Q65,32 125,38 T200,34"/>
        <path d="M0,52 Q35,48 85,54 T200,50"/>
        <path d="M0,68 Q55,65 115,70 T200,67"/>
        <path d="M0,85 Q75,82 135,88 T200,84"/>
        <path d="M0,100 Q45,97 95,103 T200,99"/>
        <path d="M0,118 Q65,115 125,120 T200,117"/>
        <path d="M0,135 Q55,132 105,138 T200,134"/>
        <path d="M0,150 Q35,147 85,153 T200,149"/>
        <path d="M0,168 Q75,165 135,170 T200,167"/>
        <path d="M0,185 Q45,182 95,188 T200,184"/>
      </g>
    </pattern>
  </defs>
  <rect width="100%" height="100%" fill="url(#wood)"/>
</svg>
